<svg width="24" height="24" viewBox="0 0 24 24" xmlns="http://www.w3.org/2000/svg" xmlns:xlink="http://www.w3.org/1999/xlink" fill="none" overflow="hidden"><path d="M10.5 8C8.84315 8 7.5 9.34315 7.5 11 7.5 12.6569 8.84315 14 10.5 14 12.1569 14 13.5 12.6569 13.5 11 13.5 9.34315 12.1569 8 10.5 8ZM9 11C9 10.1716 9.67157 9.5 10.5 9.5 11.3284 9.5 12 10.1716 12 11 12 11.8284 11.3284 12.5 10.5 12.5 9.67157 12.5 9 11.8284 9 11Z" fill="#212121"/><path d="M2 7.25C2 6.00736 3.00736 5 4.25 5L16.75 5C17.9926 5 19 6.00736 19 7.25L19 14.75C19 15.9926 17.9926 17 16.75 17L4.25 17C3.00736 17 2 15.9926 2 14.75L2 7.25ZM4.25 6.5C3.83579 6.5 3.5 6.83579 3.5 7.25L3.5 8 4.25 8C4.66421 8 5 7.66421 5 7.25L5 6.5 4.25 6.5ZM3.5 12.5 4.25 12.5C5.49264 12.5 6.5 13.5074 6.5 14.75L6.5 15.5 14.5 15.5 14.5 14.75C14.5 13.5074 15.5074 12.5 16.75 12.5L17.5 12.5 17.5 9.5 16.75 9.5C15.5074 9.5 14.5 8.49264 14.5 7.25L14.5 6.5 6.5 6.5 6.5 7.25C6.5 8.49264 5.49264 9.5 4.25 9.5L3.5 9.5 3.5 12.5ZM17.5 8 17.5 7.25C17.5 6.83579 17.1642 6.5 16.75 6.5L16 6.5 16 7.25C16 7.664 16.336 8 16.75 8L17.5 8ZM17.5 14 16.75 14C16.3358 14 16 14.3358 16 14.75L16 15.5 16.75 15.5C17.1642 15.5 17.5 15.1642 17.5 14.75L17.5 14ZM3.5 14.75C3.5 15.164 3.836 15.5 4.25 15.5L5 15.5 5 14.75C5 14.3358 4.66421 14 4.25 14L3.5 14 3.5 14.75Z" fill="#212121"/><path d="M4.401 18.5C4.93691 19.4286 5.92782 20.0005 7 20L17.25 20C19.8734 20 22 17.8734 22 15.25L22 10C22 8.89 21.397 7.92 20.5 7.401L20.5 15.25C20.5 17.0449 19.0449 18.5 17.25 18.5L4.401 18.5Z" fill="#212121"/></svg>