<svg width="24" height="24" viewBox="0 0 24 24" xmlns="http://www.w3.org/2000/svg" xmlns:xlink="http://www.w3.org/1999/xlink" fill="#FFFFFF" overflow="hidden"><path d="M6 3C4.35503 3 3 4.35503 3 6L3 18C3 19.645 4.35503 21 6 21L18 21C19.645 21 21 19.645 21 18L21 6C21 4.35503 19.645 3 18 3L6 3ZM6 5 18 5C18.565 5 19 5.43497 19 6L19 18C19 18.565 18.565 19 18 19L6 19C5.43497 19 5 18.565 5 18L5 6C5 5.43497 5.43497 5 6 5ZM12 7 12 14C12 14.565 11.565 15 11 15 10.435 15 10 14.565 10 14 10 13.435 10.435 13 11 13L11 11C9.35503 11 8 12.355 8 14 8 15.645 9.35503 17 11 17 12.645 17 14 15.645 14 14L14 10.2324C14.6161 10.6713 15.2591 11 16 11L16 9C15.9527 9 15.2627 8.78094 14.7812 8.36133 14.2998 7.94172 14 7.41499 14 7L12 7Z" fill="#7F7F7F"/></svg>