<svg width="24" height="24" viewBox="0 0 24 24" xmlns="http://www.w3.org/2000/svg" xmlns:xlink="http://www.w3.org/1999/xlink" fill="none" overflow="hidden"><path d="M14.754 10C15.72 10 16.504 10.784 16.504 11.75L16.504 15 16.5 15 16.5 15.25C16.5 15.6642 16.1642 16 15.75 16 15.3358 16 15 15.6642 15 15.25L15 13 15.004 13 15.004 11.75C15.004 11.6119 14.8921 11.5 14.754 11.5L9.252 11.5C9.11393 11.5 9.002 11.6119 9.002 11.75L9.002 15 9 15 9 15.25C9 15.6642 8.66421 16 8.25 16 7.83579 16 7.5 15.6642 7.5 15.25L7.5 13 7.502 13 7.502 11.75C7.502 10.784 8.285 10 9.252 10L14.754 10ZM20.5 11.75 20.5 15.25C20.5 15.6642 20.8358 16 21.25 16 21.6642 16 22 15.6642 22 15.25L22 11.75C22 10.7835 21.2165 10 20.25 10L16.875 10C17.218 10.415 17.442 10.932 17.493 11.5L20.25 11.5C20.3881 11.5 20.5 11.6119 20.5 11.75ZM2 15.25C2 15.6642 2.33579 16 2.75 16 3.16421 16 3.5 15.6642 3.5 15.25L3.5 11.75C3.5 11.6119 3.61193 11.5 3.75 11.5L6.513 11.5C6.56274 10.949 6.7782 10.4261 7.131 10L3.75 10C2.7835 10 2 10.7835 2 11.75L2 15.25ZM12 3C13.6569 3 15 4.34315 15 6 15 7.65685 13.6569 9 12 9 10.3431 9 9 7.65685 9 6 9 4.34315 10.3431 3 12 3ZM12 4.5C11.1716 4.5 10.5 5.17157 10.5 6 10.5 6.82843 11.1716 7.5 12 7.5 12.8284 7.5 13.5 6.82843 13.5 6 13.5 5.17157 12.8284 4.5 12 4.5ZM18.5 4C19.8807 4 21 5.11929 21 6.5 21 7.88071 19.8807 9 18.5 9 17.1193 9 16 7.88071 16 6.5 16 5.11929 17.1193 4 18.5 4ZM18.5 5.5C17.9477 5.5 17.5 5.94772 17.5 6.5 17.5 7.05228 17.9477 7.5 18.5 7.5 19.0523 7.5 19.5 7.05228 19.5 6.5 19.5 5.94772 19.0523 5.5 18.5 5.5ZM5.5 4C6.88071 4 8 5.11929 8 6.5 8 7.88071 6.88071 9 5.5 9 4.11929 9 3 7.88071 3 6.5 3 5.11929 4.11929 4 5.5 4ZM5.5 5.5C4.94772 5.5 4.5 5.94772 4.5 6.5 4.5 7.05228 4.94772 7.5 5.5 7.5 6.05228 7.5 6.5 7.05228 6.5 6.5 6.5 5.94772 6.05228 5.5 5.5 5.5ZM2.75 17C2.33579 17 2 17.3358 2 17.75L2 18.25C2 20.3211 3.67893 22 5.75 22L18.25 22C20.3211 22 22 20.3211 22 18.25L22 17.75C22 17.3358 21.6642 17 21.25 17L2.75 17ZM5.75 20.5C4.60413 20.5 3.64132 19.6388 3.514 18.5L20.486 18.5C20.3587 19.6388 19.3959 20.5 18.25 20.5L5.75 20.5Z" fill="#212121"/></svg>