<svg width="24" height="24" viewBox="0 0 24 24" xmlns="http://www.w3.org/2000/svg" xmlns:xlink="http://www.w3.org/1999/xlink" fill="none" overflow="hidden"><path d="M5 6.25C5 5.00736 6.00736 4 7.25 4L15.75 4C16.9926 4 18 5.00736 18 6.25L18 14 21.5 14 21.5 17.25C21.5 19.0449 20.0449 20.5 18.25 20.5L13 20.5 13 19 16.5 19 16.5 6.25C16.5 5.83579 16.1642 5.5 15.75 5.5L7.25 5.5C6.83579 5.5 6.5 5.83579 6.5 6.25L6.5 14 5 14 5 6.25ZM18 19 18.25 19C19.2165 19 20 18.2165 20 17.25L20 15.5 18 15.5 18 19ZM14.25 16.5 13 16.5C13.0007 15.959 12.8252 15.4324 12.5 15L14.25 15C14.6642 15 15 15.3358 15 15.75 15 16.1642 14.6642 16.5 14.25 16.5ZM8 8.75C8 8.33579 8.33579 8 8.75 8L14.25 8C14.6642 8 15 8.33579 15 8.75 15 9.16421 14.6642 9.5 14.25 9.5L8.75 9.5C8.33579 9.5 8 9.16421 8 8.75ZM8 12.25C8 11.8358 8.33579 11.5 8.75 11.5L14.25 11.5C14.6642 11.5 15 11.8358 15 12.25 15 12.6642 14.6642 13 14.25 13L8.75 13C8.33579 13 8 12.6642 8 12.25ZM1 16.5C1 15.6716 1.67157 15 2.5 15L10.5 15C11.3284 15 12 15.6716 12 16.5L12 20.5C12 21.3284 11.3284 22 10.5 22L2.5 22C1.67157 22 1 21.3284 1 20.5L1 16.5ZM11 17C10.4477 17 10 16.5523 10 16L9 16C9 17.1046 9.89543 18 11 18L11 17ZM11 19C9.89543 19 9 19.8954 9 21L10 21C10 20.4477 10.4477 20 11 20L11 19ZM3 16C3 16.5523 2.55228 17 2 17L2 18C3.10457 18 4 17.1046 4 16L3 16ZM4 21C4 19.8954 3.10457 19 2 19L2 20C2.55228 20 3 20.4477 3 21L4 21ZM8.25 18.5C8.25 17.5335 7.4665 16.75 6.5 16.75 5.5335 16.75 4.75 17.5335 4.75 18.5 4.75 19.4665 5.5335 20.25 6.5 20.25 7.4665 20.25 8.25 19.4665 8.25 18.5Z" fill="#FFFFFF"/></svg>