<svg width="24" height="24" viewBox="0 0 24 24" xmlns="http://www.w3.org/2000/svg" xmlns:xlink="http://www.w3.org/1999/xlink" fill="none" overflow="hidden"><path d="M19.75 2C20.9926 2 22 3.00736 22 4.25L22 9.712C21.9999 10.5739 21.6575 11.4005 21.048 12.01L12.548 20.513C11.2778 21.7803 9.22171 21.7807 7.951 20.514L3.489 16.06C2.2191 14.7916 2.21775 12.734 3.486 11.464L11.986 2.954C12.5951 2.34376 13.4218 2.00058 14.284 2L19.749 2ZM19.75 3.5 14.285 3.5C13.82 3.5 13.375 3.685 13.046 4.013L4.534 12.536C3.86326 13.222 3.86995 14.3202 4.549 14.998L9.01 19.452C9.6948 20.1341 10.8022 20.1341 11.487 19.452L19.987 10.949C20.3152 10.621 20.4998 10.176 20.5 9.712L20.5 4.25C20.5 3.83579 20.1642 3.5 19.75 3.5ZM17 5.502C17.8284 5.502 18.5 6.17357 18.5 7.002 18.5 7.83043 17.8284 8.502 17 8.502 16.1716 8.502 15.5 7.83043 15.5 7.002 15.5 6.17357 16.1716 5.502 17 5.502Z" fill="#FFFFFF"/></svg>