<svg width="24" height="24" viewBox="0 0 24 24" xmlns="http://www.w3.org/2000/svg" xmlns:xlink="http://www.w3.org/1999/xlink" fill="none" overflow="hidden"><path d="M15.841 2.661C14.9709 1.77379 13.5464 1.75988 12.6592 2.62995 12.6564 2.63262 12.6537 2.63531 12.651 2.638L3.053 12.146C2.17015 13.0205 2.16336 14.4451 3.03785 15.3279 3.04518 15.3353 3.05256 15.3427 3.06 15.35L8.159 20.358C8.6074 20.7995 9.22057 21.0324 9.849 21L16.114 21C16.5282 22.3177 17.9322 23.0501 19.2499 22.6359 20.5676 22.2217 21.3 20.8177 20.8858 19.5 20.4716 18.1823 19.0676 17.4499 17.7499 17.8641 16.97 18.1093 16.3592 18.7201 16.114 19.5L12.161 19.5 20.744 10.827C21.6088 9.95305 21.6119 8.54678 20.751 7.669L15.841 2.661ZM9.75 19.5 9.75 19.502C9.54852 19.5063 9.35382 19.4292 9.21 19.288L4.11 14.28C3.81454 13.9897 3.81035 13.5148 4.10065 13.2194 4.10308 13.2169 4.10553 13.2144 4.108 13.212L5.638 11.698 11.736 17.797 10.268 19.28C10.1432 19.4067 9.97722 19.4847 9.8 19.5L9.75 19.5ZM13.707 3.704C14.0012 3.41238 14.476 3.41445 14.7676 3.70862 14.7684 3.70941 14.7692 3.7102 14.77 3.711L19.68 8.72C19.9666 9.01242 19.9657 9.48067 19.678 9.772L12.79 16.73 6.702 10.642 13.706 3.704Z" fill="#7F7F7F"/></svg>