<svg width="24" height="24" viewBox="0 0 24 24" xmlns="http://www.w3.org/2000/svg" xmlns:xlink="http://www.w3.org/1999/xlink" fill="#FFFFFF" overflow="hidden"><path d="M12 2C6.477 2 2 6.477 2 12 2 17.395 6.275 21.78 11.621 21.981L11.621 15.039 9.278 15.039 9.278 12.314 11.621 12.314 11.621 10.309C11.621 7.985 13.042 6.718 15.116 6.718 15.815 6.716 16.513 6.752 17.208 6.823L17.208 9.253 15.78 9.253C14.65 9.253 14.43 9.787 14.43 10.575L14.43 12.31 17.13 12.31 16.779 15.035 14.414 15.035 14.414 21.694C18.768 20.613 22 16.689 22 12 22 6.477 17.523 2 12 2Z"/></svg>