<svg width="24" height="24" viewBox="0 0 24 24" xmlns="http://www.w3.org/2000/svg" xmlns:xlink="http://www.w3.org/1999/xlink" fill="none" overflow="hidden"><path d="M10.55 2.532C11.3877 1.82595 12.6123 1.82595 13.45 2.532L20.2 8.224C20.707 8.652 21 9.281 21 9.944L21 19.747C21 20.7135 20.2165 21.497 19.25 21.497L15.75 21.497C14.7835 21.497 14 20.7135 14 19.747L14 14.247C14 14.1089 13.8881 13.997 13.75 13.997L10.25 13.997C10.1119 13.997 10 14.1089 10 14.247L10 19.747C10 20.7135 9.2165 21.497 8.25 21.497L4.75 21.497C3.7835 21.497 3 20.7135 3 19.747L3 9.944C3 9.281 3.293 8.652 3.8 8.224L10.55 2.532ZM12.483 3.679C12.2039 3.44403 11.7961 3.44403 11.517 3.679L4.767 9.37C4.59792 9.51233 4.50023 9.72199 4.5 9.943L4.5 19.746C4.5 19.884 4.612 19.996 4.75 19.996L8.25 19.996C8.38807 19.996 8.5 19.8841 8.5 19.746L8.5 14.246C8.5 13.279 9.284 12.496 10.25 12.496L13.75 12.496C14.716 12.496 15.5 13.279 15.5 14.246L15.5 19.746C15.5 19.884 15.612 19.996 15.75 19.996L19.25 19.996C19.3881 19.996 19.5 19.8841 19.5 19.746L19.5 9.944C19.4998 9.72299 19.4021 9.51333 19.233 9.371L12.483 3.679Z" fill="#212121"/></svg>